<svg xmlns="http://www.w3.org/2000/svg" viewBox="0 0 69.13 84.05"><defs><style>.cls-1{fill:#b9e4fa}.cls-2,.cls-3{fill:none;stroke:#000;stroke-miterlimit:10}.cls-2{stroke-width:2px}.cls-3{stroke-width:5px}</style></defs><title>sleetAsset 143colored</title><g id="Layer_2" data-name="Layer 2"><g id="Layer_1-2" data-name="Layer 1"><circle cx="30.81" cy="50.71" r="5.87" class="cls-1"/><line x1="58.35" x2="58.35" y1="3.17" y2="9.86" class="cls-2"/><polyline points="55.96 .74 58.35 3.13 60.78 .71" class="cls-2"/><line x1="58.39" x2="58.39" y1="20.08" y2="13.38" class="cls-2"/><polyline points="60.78 22.51 58.39 20.11 55.96 22.54" class="cls-2"/><line x1="65.53" x2="59.85" y1="16.12" y2="12.57" class="cls-2"/><polyline points="66.32 19.44 65.56 16.14 68.9 15.37" class="cls-2"/><line x1="51.21" x2="56.89" y1="7.12" y2="10.67" class="cls-2"/><polyline points="50.42 3.81 51.18 7.1 47.84 7.87" class="cls-2"/><line x1="51.21" x2="56.89" y1="16.11" y2="12.57" class="cls-2"/><polyline points="50.41 19.43 51.17 16.13 47.84 15.35" class="cls-2"/><line x1="65.54" x2="59.86" y1="7.13" y2="10.67" class="cls-2"/><polyline points="66.33 3.82 65.57 7.11 68.91 7.89" class="cls-2"/><circle cx="58.26" cy="11.65" r="2.36" class="cls-2"/><line x1="31.07" x2="31.07" y1="26.11" y2="45.52" class="cls-3"/><polyline points="24.14 19.06 31.07 26 38.11 18.98" class="cls-3"/><line x1="31.17" x2="31.17" y1="75.15" y2="55.73" class="cls-3"/><polyline points="38.11 82.2 31.17 75.26 24.14 82.28" class="cls-3"/><line x1="51.88" x2="35.42" y1="63.68" y2="53.38" class="cls-3"/><polyline points="54.18 73.3 51.98 63.73 61.66 61.5" class="cls-3"/><line x1="10.36" x2="26.82" y1="37.58" y2="47.87" class="cls-3"/><polyline points="8.06 27.96 10.27 37.52 .58 39.76" class="cls-3"/><line x1="10.34" x2="26.82" y1="63.65" y2="53.38" class="cls-3"/><polyline points="8.03 73.26 10.24 63.7 .57 61.45" class="cls-3"/><line x1="51.9" x2="35.42" y1="37.61" y2="47.88" class="cls-3"/><polyline points="54.21 28 52 37.55 61.67 39.81" class="cls-3"/><circle cx="30.81" cy="50.71" r="6.85" class="cls-3"/></g></g></svg>